<?xml version="1.0" encoding="UTF-8" standalone="no"?>
<!DOCTYPE svg PUBLIC "-//W3C//DTD SVG 1.1//EN" "http://www.w3.org/Graphics/SVG/1.1/DTD/svg11.dtd">
<svg version="1.1" xmlns="http://www.w3.org/2000/svg" xmlns:xlink="http://www.w3.org/1999/xlink" preserveAspectRatio="xMidYMid meet" viewBox="3.9898003328099527 0.9727173825439852 289.1666823080011 198.05456523491208" width="274.17" height="183.05"><defs><path d="M181.59 147.84L101.33 104.9L181.59 57.65" id="a2ax3b8dg"></path><path d="" id="dtkpCcS0k"></path><path d="M181.59 143.54C162.26 178.22 132.81 194.1 93.26 191.19C33.94 186.82 12.84 156.21 11.52 100.16C10.2 44.11 48.44 14.84 99.77 9.02C133.99 5.13 161.27 22.13 181.59 60.02" id="a1xQPckq2f"></path><path d="M136.28 51.87C136.28 64.83 126.18 75.36 113.74 75.36C101.3 75.36 91.19 64.83 91.19 51.87C91.19 38.91 101.3 28.39 113.74 28.39C126.18 28.39 136.28 38.91 136.28 51.87Z" id="abCFunBQ31"></path><path d="M208.58 142.86C230.8 122.66 230.8 99.42 208.58 73.16" id="a6axCaPvwc"></path><path d="M240.05 151.07C262.27 124.93 262.27 94.87 240.05 60.88" id="d6APDkm9ch"></path><path d="M268.99 163.19C291.21 130.02 291.21 91.88 268.99 48.76" id="ahWvZGDTS"></path></defs><g><g><g><use xlink:href="#a2ax3b8dg" opacity="1" fill-opacity="0" stroke="#000000" stroke-width="15" stroke-opacity="1"></use></g></g><g><g><use xlink:href="#dtkpCcS0k" opacity="1" fill-opacity="0" stroke="#000000" stroke-width="4" stroke-opacity="1"></use></g></g><g><g><use xlink:href="#a1xQPckq2f" opacity="1" fill-opacity="0" stroke="#000000" stroke-width="15" stroke-opacity="1"></use></g></g><g><g><use xlink:href="#abCFunBQ31" opacity="1" fill-opacity="0" stroke="#000000" stroke-width="15" stroke-opacity="1"></use></g></g><g><g><use xlink:href="#a6axCaPvwc" opacity="1" fill-opacity="0" stroke="#000000" stroke-width="15" stroke-opacity="1"></use></g></g><g><g><use xlink:href="#d6APDkm9ch" opacity="1" fill-opacity="0" stroke="#000000" stroke-width="15" stroke-opacity="1"></use></g></g><g><g><use xlink:href="#ahWvZGDTS" opacity="1" fill-opacity="0" stroke="#000000" stroke-width="15" stroke-opacity="1"></use></g></g></g></svg>